# xmcd CD database file
#
# Track frame offsets:
#	150
#	33829
#	48264
#	71356
#	94462
#	104941
#	125149
#	133053
#	141454
#	155794
#
# Disc length: 2742 seconds
#
# Revision: 0
# Processed by: cddbd v1.5.2PL0 Copyright (c) Steve Scherf et al.
# Submitted via: CDex 1.70beta2
#
DISCID=9e0ab40a
DTITLE=Mike Taylor - Remembered
DYEAR=1972
DGENRE=Jazz
TTITLE0=Half Blue - Pendulum
TTITLE1=I See You
TTITLE2=Son of Red Blues - Brown Thursday
TTITLE3=Song of Love
TTITLE4=Folk Dance No.2
TTITLE5=Summer Sounds, Summer Sights
TTITLE6=Land Of Rhyme In Time
TTITLE7=Timewind
TTITLE8=Jumping Off The Sun
TTITLE9=Black and White Raga
EXTD=YEAR: 1972
EXTT0=
EXTT1=
EXTT2=
EXTT3=
EXTT4=
EXTT5=
EXTT6=
EXTT7=
EXTT8=
EXTT9=
PLAYORDER=
